<?xml version="1.0" encoding="UTF-8" standalone="no"?>
<svg width="800" height="600" viewBox="0 0 800 600" xmlns="http://www.w3.org/2000/svg">
  <rect width="800" height="600" fill="#f0f0f0"/>
  <g transform="translate(50, 50)">
    <!-- VS Code window frame -->
    <rect width="700" height="500" rx="5" ry="5" fill="#1e1e1e"/>

    <!-- Sidebar -->
    <rect width="200" height="500" fill="#252526"/>

    <!-- Greppy results panel -->
    <rect x="10" y="40" width="180" height="450" rx="3" ry="3" fill="#333333"/>

    <!-- Pattern groups -->
    <rect x="20" y="55" width="160" height="25" rx="3" ry="3" fill="#505050"/>
    <text x="35" y="73" font-family="Arial" font-size="12" fill="#ffffff">Vulnerable Memcpy (3)</text>
    <circle cx="25" cy="67" r="5" fill="#f14c4c"/>

    <rect x="20" y="85" width="160" height="25" rx="3" ry="3" fill="#505050"/>
    <text x="35" y="103" font-family="Arial" font-size="12" fill="#ffffff">SQL Injection Risk (2)</text>
    <circle cx="25" cy="97" r="5" fill="#E2C08D"/>

    <rect x="20" y="115" width="160" height="25" rx="3" ry="3" fill="#505050"/>
    <text x="35" y="133" font-family="Arial" font-size="12" fill="#ffffff">Debug Prints (5)</text>
    <circle cx="25" cy="127" r="5" fill="#9CDCFE"/>

    <!-- Findings -->
    <rect x="30" y="145" width="150" height="20" rx="2" ry="2" fill="#3c3c3c"/>
    <text x="40" y="159" font-family="Arial" font-size="10" fill="#ffffff">main.c:24</text>

    <rect x="30" y="170" width="150" height="20" rx="2" ry="2" fill="#3c3c3c"/>
    <text x="40" y="184" font-family="Arial" font-size="10" fill="#ffffff">buffer.c:46</text>

    <!-- Editor area -->
    <rect x="200" y="0" width="500" height="500" fill="#1e1e1e"/>

    <!-- Code in editor -->
    <rect x="220" y="20" width="460" height="460" fill="#252526"/>

    <!-- Line numbers -->
    <text x="230" y="45" font-family="Courier" font-size="12" fill="#6e6e6e">42</text>
    <text x="230" y="65" font-family="Courier" font-size="12" fill="#6e6e6e">43</text>
    <text x="230" y="85" font-family="Courier" font-size="12" fill="#6e6e6e">44</text>
    <text x="230" y="105" font-family="Courier" font-size="12" fill="#6e6e6e">45</text>
    <text x="230" y="125" font-family="Courier" font-size="12" fill="#e09090">46</text>
    <text x="230" y="145" font-family="Courier" font-size="12" fill="#6e6e6e">47</text>
    <text x="230" y="165" font-family="Courier" font-size="12" fill="#6e6e6e">48</text>

    <!-- Code with highlight -->
    <text x="260" y="45" font-family="Courier" font-size="12" fill="#d4d4d4">void process_data(char *input, size_t size) {</text>
    <text x="260" y="65" font-family="Courier" font-size="12" fill="#d4d4d4">    char buffer[128];</text>
    <text x="260" y="85" font-family="Courier" font-size="12" fill="#d4d4d4">    </text>
    <text x="260" y="105" font-family="Courier" font-size="12" fill="#d4d4d4">    // Copy input to buffer</text>
    <rect x="260" y="113" width="340" height="16" fill="rgba(255, 100, 100, 0.2)"/>
    <text x="260" y="125" font-family="Courier" font-size="12" fill="#d4d4d4">    memcpy(buffer, input, size);  // Potential buffer overflow</text>
    <text x="260" y="145" font-family="Courier" font-size="12" fill="#d4d4d4">    </text>
    <text x="260" y="165" font-family="Courier" font-size="12" fill="#d4d4d4">    process_buffer(buffer);</text>
  </g>
</svg>
